<svg width="32" height="32" viewBox="0 0 32 32" fill="none" xmlns="http://www.w3.org/2000/svg">
  <g clip-path="url(#clip0)">
  <path d="M10 9.99999L3.33334 3.33333" stroke="#F9AC00" stroke-width="6"/>
  <path d="M3.33334 29.3333L10 22.6667" stroke="#F9AC00" stroke-width="6"/>
  <path d="M23.3333 9.33334L30 2.66667" stroke="#F9AC00" stroke-width="6"/>
  <path d="M30 29.3333L23.3333 22.6667" stroke="#F9AC00" stroke-width="6"/>
  <path d="M21.9062 19.0393C21.8625 19.7268 21.7125 20.3455 21.4562 20.8955C21.2062 21.4455 20.8687 21.9143 20.4437 22.3018C20.0187 22.6893 19.5125 22.9893 18.925 23.2018C18.3375 23.408 17.6875 23.5112 16.975 23.5112C16.1687 23.5112 15.4531 23.3643 14.8281 23.0705C14.2031 22.7705 13.6781 22.3549 13.2531 21.8237C12.8281 21.2862 12.5031 20.6424 12.2781 19.8924C12.0531 19.1424 11.9406 18.3174 11.9406 17.4174V15.5799C11.9406 14.6737 12.0594 13.8455 12.2969 13.0955C12.5344 12.3455 12.8719 11.7018 13.3094 11.1643C13.7469 10.6268 14.275 10.2112 14.8937 9.91741C15.5187 9.61741 16.2187 9.46741 16.9937 9.46741C17.7437 9.46741 18.4094 9.57366 18.9906 9.78616C19.5781 9.99866 20.0781 10.3018 20.4906 10.6955C20.9031 11.0893 21.2281 11.5705 21.4656 12.1393C21.7031 12.708 21.8531 13.3487 21.9156 14.0612H19.2906C19.2656 13.6549 19.2031 13.2987 19.1031 12.9924C19.0094 12.6862 18.8687 12.433 18.6812 12.233C18.5 12.0268 18.2687 11.8737 17.9875 11.7737C17.7125 11.6674 17.3812 11.6143 16.9937 11.6143C16.5875 11.6143 16.2344 11.7018 15.9344 11.8768C15.6344 12.0518 15.3844 12.308 15.1844 12.6455C14.9906 12.983 14.8469 13.3987 14.7531 13.8924C14.6594 14.3799 14.6125 14.9362 14.6125 15.5612V17.4174C14.6125 18.7612 14.8 19.7549 15.175 20.3987C15.5562 21.0424 16.1562 21.3643 16.975 21.3643C17.6625 21.3643 18.2062 21.183 18.6062 20.8205C19.0062 20.4518 19.2281 19.858 19.2719 19.0393H21.9062Z" fill="black"/>
  </g>
  <defs>
  <clipPath id="clip0">
  <rect width="32" height="32" fill="white"/>
  </clipPath>
  </defs>
</svg>
